<svg width="24" height="24" viewBox="0 0 24 24" fill="none" xmlns="http://www.w3.org/2000/svg">
<path d="M23.8348 21.9786L18.1444 16.2883C18.0366 16.1805 17.896 16.1242 17.746 16.1242H17.1273C18.6038 14.4134 19.499 12.1869 19.499 9.74952C19.499 4.36385 15.1352 0 9.74952 0C4.36385 0 0 4.36385 0 9.74952C0 15.1352 4.36385 19.499 9.74952 19.499C12.1869 19.499 14.4134 18.6038 16.1242 17.1273V17.746C16.1242 17.896 16.1851 18.0366 16.2883 18.1444L21.9786 23.8348C22.1989 24.0551 22.5551 24.0551 22.7754 23.8348L23.8348 22.7754C24.0551 22.5551 24.0551 22.1989 23.8348 21.9786ZM9.74952 17.2492C5.60598 17.2492 2.24989 13.8931 2.24989 9.74952C2.24989 5.60598 5.60598 2.24989 9.74952 2.24989C13.8931 2.24989 17.2492 5.60598 17.2492 9.74952C17.2492 13.8931 13.8931 17.2492 9.74952 17.2492Z" fill="white"/>
</svg>
