<svg width="340" height="80" viewBox="0 0 266 51" fill="none" xmlns="http://www.w3.org/2000/svg">
<g opacity="0.7">
<g filter="url(#filter0_d_2_45)">
<rect x="6" y="6" width="38.6454" height="38.6454" rx="4.83068" stroke="url(#paint0_linear_2_45)" stroke-width="1.93227" shape-rendering="crispEdges"/>
</g>
<g filter="url(#filter1_d_2_45)">
<path d="M25.3352 15.6612C22.6343 15.6612 21.0872 16.6588 20.2481 17.4989C19.2779 18.4966 18.7535 19.783 18.7535 21.1482C18.7797 24.7449 22.3984 25.8213 24.8108 26.6877C27.4854 27.6591 28.7178 28.3679 28.7178 29.4706C28.7178 30.3895 28.1672 31.0458 27.433 31.3871C26.489 31.8334 25.5188 31.5184 24.6272 31.4659C23.7619 31.4134 23.0277 32.0172 23.0277 33.1199C23.0277 34.4588 24.8632 34.9839 26.2268 34.9839C30.3961 34.9839 32.2054 32.2797 32.2054 29.6806C32.2054 26.4514 29.2423 25.0337 25.8859 23.7473C23.1588 22.6972 22.241 21.9883 22.241 21.1482C22.241 19.8618 23.4735 18.9429 25.2303 18.9429C27.2494 18.9429 28.3507 20.0455 28.8227 20.4656C29.4783 21.0432 30.4223 21.1219 31.0516 20.3343C31.5236 19.7305 31.6023 18.8904 31.1303 18.2603C30.4485 17.2889 28.4032 15.6612 25.3352 15.6612Z" fill="white"/>
<path d="M20.1695 29.0768C19.2255 29.0768 18.4389 29.8382 18.4389 30.8096C18.4389 31.7809 19.2255 32.5423 20.1695 32.5423C21.1397 32.5423 21.9264 31.7809 21.9264 30.8096C21.9264 29.8382 21.1659 29.0768 20.1695 29.0768Z" fill="white"/>
</g>
<mask id="mask0_2_45" style="mask-type:alpha" maskUnits="userSpaceOnUse" x="59" y="17" width="207" height="20">
<path d="M65.4536 17.2977C62.9944 17.2977 61.5891 18.1761 60.8279 18.9958C59.9496 19.9327 59.4812 21.1037 59.4812 22.3334C59.4812 25.6124 62.8187 26.6078 64.9852 27.369C67.4445 28.2473 68.557 28.8914 68.557 29.8868C68.557 30.7065 68.03 31.3506 67.3859 31.6434C66.5076 32.0533 65.6293 31.7605 64.8095 31.702C64.0484 31.6434 63.3457 32.2289 63.3457 33.2243C63.3457 34.454 65.0438 34.9224 66.2734 34.9224C70.0794 34.9224 71.7189 32.4632 71.7189 30.0625C71.7189 27.1348 69.0254 25.8466 65.9806 24.6755C63.4628 23.7387 62.6431 23.0946 62.6431 22.3334C62.6431 21.1623 63.7556 20.3425 65.3951 20.3425C67.2103 20.3425 68.2642 21.338 68.6741 21.7478C69.2596 22.2748 70.1379 22.3334 70.7235 21.6307C71.1333 21.1037 71.2505 20.284 70.782 19.757C70.1379 18.7616 68.2642 17.2977 65.4536 17.2977Z" fill="#208A88"/>
<path d="M259.735 17.2977C257.275 17.2977 255.87 18.1761 255.109 18.9958C254.231 19.9327 253.762 21.1037 253.762 22.3334C253.762 25.6124 257.1 26.6078 259.266 27.369C261.726 28.2473 262.838 28.8914 262.838 29.8868C262.838 30.7065 262.311 31.3506 261.667 31.6434C260.789 32.0533 259.91 31.7605 259.091 31.702C258.329 31.6434 257.627 32.2289 257.627 33.2243C257.627 34.454 259.325 34.9224 260.554 34.9224C264.36 34.9224 266 32.4632 266 30.0625C266 27.1348 263.307 25.8466 260.262 24.6755C257.802 23.7387 256.924 23.0946 256.924 22.3334C256.924 21.1623 258.037 20.3425 259.676 20.3425C261.491 20.3425 262.545 21.338 262.955 21.7478C263.541 22.2748 264.419 22.3334 265.005 21.6307C265.414 21.1037 265.532 20.284 265.063 19.757C264.36 18.7616 262.487 17.2977 259.735 17.2977Z" fill="#208A88"/>
<path d="M100.293 17.7076C99.4148 17.7076 98.7121 18.4103 98.7121 19.2886V27.4275C98.7121 31.8776 101.64 34.9224 106.031 34.9224C111.067 34.9224 113.351 31.0579 113.351 27.4275V24.0314C113.351 23.1531 112.648 22.4505 111.77 22.4505C110.891 22.4505 110.189 23.1531 110.189 24.0314V27.369C110.189 29.4769 109.135 31.7019 106.09 31.7019C102.342 31.7019 101.991 28.7157 101.991 27.369V19.23C101.874 18.4103 101.171 17.7076 100.293 17.7076Z" fill="#208A88"/>
<path d="M111.711 17.7076C110.833 17.7076 110.13 18.4103 110.13 19.2886C110.13 20.1669 110.833 20.8695 111.711 20.8695C112.589 20.8695 113.292 20.1669 113.292 19.2886C113.292 18.4103 112.589 17.7076 111.711 17.7076Z" fill="#208A88"/>
<path d="M139.524 17.7076C138.646 17.7076 137.943 18.4103 137.943 19.2886V32.873C137.943 33.7513 138.646 34.454 139.524 34.454C140.402 34.454 141.105 33.7513 141.105 32.873V20.7524H143.857C147.429 20.7524 149.303 22.5676 149.303 26.0808C149.303 27.4861 148.893 28.7157 148.19 29.594C148.014 29.7697 147.78 30.0039 147.663 30.2381C147.019 30.8822 147.019 31.8191 147.487 32.4046C148.073 33.0487 149.068 33.1658 149.712 32.5803C151.469 31.0579 152.464 28.6572 152.464 26.1393C152.464 20.9281 149.185 17.7662 143.857 17.7662L139.524 17.7076Z" fill="#208A88"/>
<path d="M203.816 17.7076C202.938 17.7076 202.235 18.4103 202.235 19.2886V32.873C202.235 33.7513 202.938 34.454 203.816 34.454C204.694 34.454 205.397 33.7513 205.397 32.873V28.0716L210.96 33.9855C211.604 34.6296 212.599 34.6296 213.185 34.0441C213.829 33.4 213.829 32.4046 213.243 31.8191L207.329 25.7295L209.437 23.7972C210.081 23.1531 210.081 22.1577 209.437 21.5722C208.793 20.9281 207.798 20.9866 207.212 21.5722L205.397 23.5044V19.2886C205.397 18.4103 204.694 17.7076 203.816 17.7076Z" fill="#208A88"/>
<path d="M211.662 17.7076C210.784 17.7076 210.081 18.4103 210.081 19.2886C210.081 20.1669 210.784 20.8695 211.662 20.8695C212.541 20.8695 213.243 20.1669 213.243 19.2886C213.302 18.4103 212.541 17.7076 211.662 17.7076Z" fill="#208A88"/>
<path d="M220.504 17.7076C219.625 17.7076 218.923 18.4103 218.923 19.2886V32.873C218.923 33.7513 219.625 34.454 220.504 34.454H228.643C229.521 34.454 230.224 33.7513 230.224 32.873C230.224 31.9947 229.521 31.2921 228.643 31.2921H222.085V27.6032H227.647C228.526 27.6032 229.228 26.9591 229.228 26.0808C229.228 25.2025 228.526 24.5584 227.647 24.5584H222.085V20.9281H223.783C224.661 20.9281 225.364 20.2254 225.364 19.3471C225.364 18.4688 224.661 17.7662 223.783 17.7662L220.504 17.7076Z" fill="#208A88"/>
<path d="M228.584 17.7076C227.706 17.7076 227.003 18.4103 227.003 19.2886C227.003 20.1669 227.706 20.8695 228.584 20.8695C229.463 20.8695 230.165 20.1669 230.165 19.2886C230.165 18.4103 229.463 17.7076 228.584 17.7076Z" fill="#208A88"/>
<path d="M159.257 17.7076C159.198 17.7076 159.081 17.7076 159.022 17.7662C158.32 17.9418 157.851 18.5859 157.851 19.2886V32.873C157.851 33.7513 158.554 34.454 159.432 34.454C160.311 34.454 161.013 33.7513 161.013 32.873V24.7341L165.463 33.5757C165.756 34.1027 166.283 34.3954 166.869 34.3954C167.454 34.3954 167.981 34.1027 168.274 33.5757L172.958 24.5584V28.0716C172.958 28.9499 173.661 29.6526 174.539 29.6526C175.417 29.6526 176.12 28.9499 176.12 28.0716V19.23C176.12 18.5274 175.593 17.8833 174.949 17.7076C174.246 17.532 173.485 17.8247 173.192 18.4688L166.927 30.0039L160.838 18.4688C160.486 18.0004 159.842 17.6491 159.257 17.7076Z" fill="#208A88"/>
<path d="M85.0691 17.2977C80.2092 17.2977 76.2861 21.2208 76.2861 26.1394C76.2861 30.9993 80.2092 34.9224 85.0691 34.9224C89.9291 34.9224 93.9107 30.9993 93.9107 26.1394C93.8522 21.2208 89.9291 17.2977 85.0691 17.2977ZM85.0691 31.702C81.9658 31.702 79.448 29.2427 79.448 26.0808C79.448 22.9775 81.9658 20.4596 85.0691 20.4596C88.1725 20.4596 90.6903 22.9775 90.6903 26.0808C90.6903 29.2427 88.1725 31.702 85.0691 31.702Z" fill="#208A88"/>
<path d="M248.141 23.036C248.141 19.757 245.916 17.7076 242.52 17.7076H237.367C236.489 17.7076 235.786 18.4103 235.786 19.2886V32.873C235.786 33.7513 236.489 34.454 237.367 34.454C238.246 34.454 238.948 33.7513 238.948 32.873V28.54H242.403L243.106 29.7111C243.574 30.4723 244.569 30.648 245.272 30.1795C246.736 29.2427 245.565 27.7203 245.565 27.7203C247.263 26.7834 248.141 25.0854 248.141 23.036ZM242.461 25.8466H238.948V20.811H242.461C244.101 20.811 244.921 21.8064 244.921 23.2702C244.979 24.5584 244.335 25.8466 242.461 25.8466Z" fill="#208A88"/>
<path d="M130.858 27.6032L126.584 18.5859C126.291 18.059 125.764 17.6491 125.12 17.6491C124.476 17.6491 123.949 18.0004 123.656 18.5859L117.215 32.1704C116.864 32.9901 117.215 33.927 117.976 34.2783C118.738 34.6297 119.674 34.2783 120.084 33.5171L121.607 30.3552H129.628C130.155 30.3552 130.682 30.0625 130.917 29.6526C131.561 28.8914 131.092 28.1887 130.858 27.6032ZM122.953 27.6618L125.178 22.9775L127.403 27.6618H122.953Z" fill="#208A88"/>
<path d="M195.15 27.6032L190.876 18.5859C190.641 18.059 190.056 17.6491 189.412 17.6491C188.768 17.6491 188.241 18.0004 187.948 18.5859L181.507 32.1704C181.156 32.9901 181.507 33.927 182.268 34.2783C183.088 34.6297 183.966 34.2783 184.376 33.5171L185.899 30.3552H193.92C194.447 30.3552 194.974 30.0625 195.267 29.6526C195.853 28.8914 195.384 28.1887 195.15 27.6032ZM187.245 27.6618L189.47 22.9775L191.695 27.6618H187.245Z" fill="#208A88"/>
<path d="M60.7693 29.5355C59.891 29.5355 59.1884 30.2381 59.1884 31.1164C59.1884 31.9947 59.891 32.6974 60.7693 32.6974C61.6477 32.6974 62.3503 31.9947 62.3503 31.1164C62.3503 30.1796 61.6477 29.5355 60.7693 29.5355Z" fill="#208A88"/>
<path d="M254.992 29.5355C254.114 29.5355 253.411 30.2381 253.411 31.1164C253.411 31.9947 254.114 32.6974 254.992 32.6974C255.87 32.6974 256.573 31.9947 256.573 31.1164C256.573 30.1796 255.87 29.5355 254.992 29.5355Z" fill="#208A88"/>
<path d="M247.087 31.2335C246.209 31.2335 245.506 31.9362 245.506 32.8145C245.506 33.6928 246.209 34.3954 247.087 34.3954C247.966 34.3954 248.668 33.6928 248.668 32.8145C248.668 31.9947 247.966 31.2335 247.087 31.2335Z" fill="#208A88"/>
<path d="M131.619 31.2921C130.741 31.2921 130.038 31.9947 130.038 32.873C130.038 33.7513 130.741 34.454 131.619 34.454C132.498 34.454 133.2 33.7513 133.2 32.873C133.2 31.9947 132.498 31.2921 131.619 31.2921Z" fill="#208A88"/>
<path d="M144.267 31.2921C143.389 31.2921 142.686 31.9947 142.686 32.873C142.686 33.7513 143.389 34.454 144.267 34.454C145.145 34.454 145.848 33.7513 145.848 32.873C145.848 31.9947 145.145 31.2921 144.267 31.2921Z" fill="#208A88"/>
<path d="M174.422 31.2921C173.544 31.2921 172.841 31.9947 172.841 32.873C172.841 33.7513 173.544 34.454 174.422 34.454C175.3 34.454 176.003 33.7513 176.003 32.873C176.062 31.9947 175.359 31.2921 174.422 31.2921Z" fill="#208A88"/>
<path d="M195.911 31.2921C195.033 31.2921 194.33 31.9947 194.33 32.873C194.33 33.7513 195.033 34.454 195.911 34.454C196.79 34.454 197.492 33.7513 197.492 32.873C197.492 31.9947 196.79 31.2921 195.911 31.2921Z" fill="#208A88"/>
<path d="M92.3883 33.4586C91.51 33.4586 90.8074 34.1612 90.8074 35.0395C90.8074 35.9178 91.51 36.6205 92.3883 36.6205C93.2666 36.6205 93.9693 35.9178 93.9693 35.0395C93.9693 34.1612 93.2666 33.4586 92.3883 33.4586Z" fill="#208A88"/>
</mask>
<g mask="url(#mask0_2_45)">
<rect x="58.924" y="17.1581" width="207.28" height="19.9083" fill="white"/>
</g>
</g>
<defs>
<filter id="filter0_d_2_45" x="0.203181" y="0.203196" width="50.2391" height="50.2391" filterUnits="userSpaceOnUse" color-interpolation-filters="sRGB">
<feFlood flood-opacity="0" result="BackgroundImageFix"/>
<feColorMatrix in="SourceAlpha" type="matrix" values="0 0 0 0 0 0 0 0 0 0 0 0 0 0 0 0 0 0 127 0" result="hardAlpha"/>
<feOffset/>
<feGaussianBlur stdDeviation="2.41534"/>
<feComposite in2="hardAlpha" operator="out"/>
<feColorMatrix type="matrix" values="0 0 0 0 0.0196078 0 0 0 0 0.858824 0 0 0 0 0.94902 0 0 0 0.6 0"/>
<feBlend mode="normal" in2="BackgroundImageFix" result="effect1_dropShadow_2_45"/>
<feBlend mode="normal" in="SourceGraphic" in2="effect1_dropShadow_2_45" result="shape"/>
</filter>
<filter id="filter1_d_2_45" x="12.642" y="9.86435" width="25.3601" height="30.9163" filterUnits="userSpaceOnUse" color-interpolation-filters="sRGB">
<feFlood flood-opacity="0" result="BackgroundImageFix"/>
<feColorMatrix in="SourceAlpha" type="matrix" values="0 0 0 0 0 0 0 0 0 0 0 0 0 0 0 0 0 0 127 0" result="hardAlpha"/>
<feOffset/>
<feGaussianBlur stdDeviation="2.89841"/>
<feColorMatrix type="matrix" values="0 0 0 0 1 0 0 0 0 1 0 0 0 0 1 0 0 0 0.6 0"/>
<feBlend mode="hard-light" in2="BackgroundImageFix" result="effect1_dropShadow_2_45"/>
<feBlend mode="normal" in="SourceGraphic" in2="effect1_dropShadow_2_45" result="shape"/>
</filter>
<linearGradient id="paint0_linear_2_45" x1="42.3858" y1="8.73244" x2="9.69257" y2="42.6254" gradientUnits="userSpaceOnUse">
<stop stop-color="#05DBF2"/>
<stop offset="1" stop-color="#5AE2D1"/>
</linearGradient>
</defs>
</svg>
